<?xml version="1.0" encoding="utf-8"?>
<!-- Generator: Adobe Illustrator 24.1.2, SVG Export Plug-In . SVG Version: 6.00 Build 0)  -->
<svg version="1.1" id="Layer_1" xmlns="http://www.w3.org/2000/svg" xmlns:xlink="http://www.w3.org/1999/xlink" x="0px" y="0px"
	 viewBox="0 0 1500 1500" style="enable-background:new 0 0 1500 1500;" xml:space="preserve">
<path d="M645.9,405.2c0,0,30.1,8,48.5,21.2c19.9,14.1-5.8,44,36,65.7c43,22.5,34,47.9,53.7,35.2c20-13.2,37.2-30.2,50.9-49.8
	c9.2-14.5,27.7-27.9,8.6-52c-14.2-17.9-29.5-28.9-43.6-40.2s-57-44.5-81.1-47.8c-22.7-2.9-35.4-8-55.2,0c-19.9,8-24.3,5.2-27,23.7
	C634,379.5,645.9,405.2,645.9,405.2L645.9,405.2z"/>
<path d="M836.2,540.7c-4.7,6.8-3,16.1,3.7,20.8c6.8,4.7,16.1,3,20.8-3.7l46.5-54.8c4.1-5.9,3.4-13.8-1.5-18.9
	c-5.7-6-15.2-6.1-21.2-0.4L838,538.5C837.4,539.1,836.8,539.9,836.2,540.7z"/>
<path d="M937.4,600.6l44.2-56.8c5.1-6.5,3.9-16-2.6-20.9c0,0-0.1,0-0.1-0.1c-6.5-5-15.8-3.8-20.8,2.7l-44.2,56.8
	c-3.9,6.1-2.9,14.1,2.4,19.1C922.3,607,931.7,606.7,937.4,600.6z"/>
<path d="M1141.8,708c7.4,3.8,15.8,1.9,19-4.4l28.3-54.5c3.3-6.2,0-14.4-7.3-18.2c-7.4-3.8-15.8-1.9-19,4.4l-28.3,54.5
	C1131.2,696.1,1134.5,704.2,1141.8,708z"/>
<path d="M1076.4,676.3c7.1,4.1,15.7,2.6,19.3-3.3l31.2-52.9c3.6-6.1,0.7-14.4-6.2-18.6c-7.1-4.2-15.8-2.8-19.3,3.3l-31.4,52.9
	C1066.5,663.8,1069.3,672,1076.4,676.3z"/>
<path d="M1251.4,706.6c3.8,20.3-3.8,22.4,34.1,20.3c37.8-1.7,34-1.5,71.9-10.2c43.6-10.2,60.6-23.7,58.7-31.2
	c-1.9-7.6-24.7-12.8-36-15.3c-43.2-9.6-54.9-11.3-77.6-15.1s-15.1-5.8-37.8,5.7C1241.9,672.1,1247.6,686.1,1251.4,706.6
	L1251.4,706.6z"/>
<path d="M991,639.4c6.4,5.2,15.8,4.3,21.1-2.1l39.7-60.1c4.5-6.9,2.7-16.1-4.2-20.6c-6.9-4.5-16.1-2.7-20.6,4.2L987.3,621
	C983.9,627.1,985.5,634.9,991,639.4z"/>
<path d="M1444.7,709.9c-9.4-2-19.1-2.2-28.6-0.4c-8.6,1.9-35.2,14.2-41,17c-5.7,2.9-10.9,6.8-30.5,13.1c-32.3,9.9-49,14.2-75.8,20.5
	c-27,6.2-95,10.5-95,10.5l0,0v84.3c0,0,86.5-1.9,140.4-14.5c54.1-12.9,43.9-13.4,88.6-31.8c50.6-20.9,61.9-49.3,60.4-57.8
	C1461.7,742,1455.2,714,1444.7,709.9z"/>
<path d="M768.4,551.1c-34.1-26.4-109.8-75.7-117.4-46.3c-7.6,29.3-57.7,50.1-99.4,61.5c-41.7,11.3-57.5,17.6-117.7-5.8
	c-14.8-5.8-52.7-36.8-52.7-36.8s-12.2-25-31.2,24.1c-18.9,49.2-13.1,158.9-13.1,158.9l0.3,25.7c0,0,779.2,0.4,833,3.8
	C1133.1,727.2,801.1,576.5,768.4,551.1L768.4,551.1z M636.2,718.3L636.2,718.3c-15.7,0.1-28.4-12.6-28.4-28.3s12.7-28.4,28.4-28.4
	h0.1c15.6,0.3,28.1,13.2,27.8,28.9C663.7,705.8,651.4,718.1,636.2,718.3z M726.3,718.2v0.2c-15.7,0-28.4-12.7-28.4-28.4
	s12.7-28.4,28.4-28.4c15.6,0.3,28.1,13.2,27.8,28.9C753.8,705.6,741.5,717.9,726.3,718.2z"/>
<path d="M854.1,1094.8c0,0-30.1-8-48.5-21.2c-19.9-14.1,5.8-44-36-65.7c-43-22.5-34-47.9-53.7-35.2c-20,13.2-37.2,30.2-50.9,49.8
	c-9.2,14.5-27.7,27.9-8.6,52c14.2,17.9,29.5,28.9,43.6,40.2s57,44.5,81.1,47.8c22.7,2.9,35.4,8,55.2,0c19.9-8,24.3-5.2,27-23.7
	C866,1120.5,854.1,1094.8,854.1,1094.8L854.1,1094.8z"/>
<path d="M663.8,959.3c4.7-6.8,3-16.1-3.7-20.8c-6.8-4.7-16.1-3-20.8,3.7L592.7,997c-4.1,5.9-3.4,13.8,1.5,18.9
	c5.7,6,15.2,6.1,21.2,0.4l46.5-54.8C662.6,960.9,663.2,960.1,663.8,959.3z"/>
<path d="M562.6,899.4l-44.2,56.8c-5.1,6.5-3.9,16,2.6,20.9c0,0,0.1,0,0.1,0.1c6.5,5,15.8,3.8,20.8-2.7l44.2-56.8
	c3.9-6.1,2.9-14.1-2.4-19.1C577.7,893,568.3,893.3,562.6,899.4z"/>
<path d="M358.2,792c-7.4-3.8-15.8-1.9-19,4.4l-28.3,54.5c-3.3,6.2,0,14.4,7.3,18.2c7.4,3.8,15.8,1.9,19-4.4l28.3-54.5
	C368.8,803.9,365.5,795.8,358.2,792z"/>
<path d="M423.6,823.7c-7.1-4.1-15.7-2.6-19.3,3.3L373,879.9c-3.6,6.1-0.7,14.4,6.2,18.6c7.1,4.2,15.8,2.8,19.3-3.3l31.4-52.9
	C433.5,836.2,430.7,828,423.6,823.7z"/>
<path d="M248.6,793.4c-3.8-20.3,3.8-22.4-34.1-20.3c-37.8,1.7-34,1.5-71.9,10.2C99,793.4,82,806.9,83.9,814.5s24.7,12.8,36,15.3
	c43.2,9.6,54.9,11.3,77.6,15.1s15.1,5.8,37.8-5.7C258.1,827.9,252.4,813.9,248.6,793.4L248.6,793.4z"/>
<path d="M509,860.6c-6.4-5.2-15.8-4.3-21.1,2.1l-39.7,60.1c-4.5,6.9-2.7,16.1,4.2,20.6c6.9,4.5,16.1,2.7,20.6-4.2l39.7-60.2
	C516.1,872.9,514.5,865.1,509,860.6z"/>
<path d="M55.3,790.1c9.4,2,19.1,2.2,28.6,0.4c8.6-1.9,35.2-14.2,41-17c5.7-2.9,10.9-6.8,30.5-13.1c32.3-9.9,49-14.2,75.8-20.5
	c27-6.2,95-10.5,95-10.5l0,0v-84.3c0,0-86.5,1.9-140.4,14.5c-54.1,12.9-43.9,13.4-88.6,31.8c-50.6,20.9-61.9,49.3-60.4,57.8
	C38.3,758,44.8,786,55.3,790.1z"/>
<path d="M731.6,948.9c34.1,26.4,109.8,75.7,117.4,46.3c7.6-29.3,57.7-50.1,99.4-61.5c41.7-11.3,57.5-17.6,117.7,5.8
	c14.8,5.8,52.7,36.8,52.7,36.8s12.2,25,31.2-24.1c18.9-49.2,13.1-158.9,13.1-158.9l-0.3-25.7c0,0-779.2-0.4-833-3.8
	C366.9,772.8,698.9,923.5,731.6,948.9L731.6,948.9z M863.8,781.7L863.8,781.7c15.7-0.1,28.4,12.6,28.4,28.3s-12.7,28.4-28.4,28.4
	h-0.1c-15.6-0.3-28.1-13.2-27.8-28.9C836.3,794.2,848.6,781.9,863.8,781.7z M773.7,781.8v-0.2c15.7,0,28.4,12.7,28.4,28.4
	s-12.7,28.4-28.4,28.4c-15.6-0.3-28.1-13.2-27.8-28.9C746.2,794.4,758.5,782.1,773.7,781.8z"/>
</svg>
